<svg id="Layer_1" data-name="Layer 1" xmlns="http://www.w3.org/2000/svg" viewBox="0 0 512 512"><defs><style>.cls-1{fill:#fff;}</style></defs><path class="cls-1" d="M107.43,212.49l54,31.16a16.53,16.53,0,0,0,24.79-14.32V167A16.53,16.53,0,0,0,161.4,152.7l-54,31.16A16.53,16.53,0,0,0,107.43,212.49Z"/><path class="cls-1" d="M85.35,345.4,150.14,308a21.93,21.93,0,0,0,0-38L85.35,232.6a21.93,21.93,0,0,0-32.9,19v74.82A21.93,21.93,0,0,0,85.35,345.4Z"/><path class="cls-1" d="M168.43,335.8,71.11,392a23.87,23.87,0,0,0,0,41.34l97.32,56.19a23.86,23.86,0,0,0,35.8-20.67V356.47A23.87,23.87,0,0,0,168.43,335.8Z"/><path class="cls-1" d="M384.68,394.49,268.22,327.25a26.92,26.92,0,0,0-40.38,23.31V485a26.92,26.92,0,0,0,40.38,23.31l116.46-67.24A26.91,26.91,0,0,0,384.68,394.49Z"/><path class="cls-1" d="M459.55,210.55a31.55,31.55,0,0,0-47.32-27.32l-128.15,74a31.54,31.54,0,0,0,0,54.63l128.15,74a31.55,31.55,0,0,0,47.32-27.32Z"/><path class="cls-1" d="M262.66,241.18,420.51,150a31.54,31.54,0,0,0,0-54.63L262.66,4.27a31.54,31.54,0,0,0-47.31,27.32V213.86A31.54,31.54,0,0,0,262.66,241.18Z"/></svg>