<?xml version="1.0" encoding="UTF-8"?>
<svg version="1.1" xmlns="http://www.w3.org/2000/svg" width="1500" height="1886">
<path d="M0 0 C1.2065625 0.3403125 2.413125 0.680625 3.65625 1.03125 C19.79780114 5.96709622 33.99717155 14.629562 48.453125 23.15625 C55.26492232 27.16997691 62.12887915 31.08925996 69 35 C78.72198498 40.5385441 88.40896636 46.13375965 98.06689453 51.78344727 C108.59084625 57.93766742 119.15380137 64.02369996 129.71777344 70.10888672 C135.14659942 73.23680148 140.57319281 76.36858448 146 79.5 C148.16665583 80.75001879 150.3333225 82.00001878 152.5 83.25 C237 132 237 132 321.5 180.75 C322.57266113 181.36883057 323.64532227 181.98766113 324.75048828 182.62524414 C326.91557071 183.87435518 329.08060982 185.12354129 331.24560547 186.37280273 C336.68615706 189.51202309 342.12747216 192.64990563 347.5703125 195.78515625 C358.02206199 201.80747329 368.46299548 207.84669337 378.875 213.9375 C387.55262241 219.01275123 396.26605568 224.02258767 405 229 C414.72115617 234.5400173 424.40894658 240.13374809 434.06689453 245.78344727 C444.59084625 251.93766742 455.15380137 258.02369996 465.71777344 264.10888672 C471.14659942 267.23680148 476.57319281 270.36858448 482 273.5 C484.16665583 274.75001879 486.3333225 276.00001878 488.5 277.25 C510.16666667 289.75 531.83333333 302.25 553.5 314.75 C554.5732251 315.36915283 555.6464502 315.98830566 556.75219727 316.6262207 C558.91159395 317.8720577 561.07093669 319.11798818 563.23022461 320.36401367 C568.75767597 323.55348953 574.28615121 326.74116885 579.81640625 329.92578125 C585.25442197 333.0573053 590.68737283 336.19749875 596.11914062 339.33984375 C598.72463037 340.84131242 601.33718397 342.32934527 603.953125 343.8125 C634.58854012 361.28981893 655.30789123 385.53282106 665.02734375 419.77734375 C672.66817596 451.16317668 667.60068758 484.06275099 650.96679688 511.71777344 C640.95013015 527.65172695 627.16086787 540.5167012 611 550 C610.08492676 550.53915039 609.16985352 551.07830078 608.22705078 551.63378906 C601.65561853 555.48764816 595.04702647 559.27438224 588.42724609 563.04443359 C582.93958467 566.17566083 577.47050291 569.33892456 572 572.5 C569.83342825 573.75016451 567.66676142 575.00016426 565.5 576.25 C563.89125 577.178125 563.89125 577.178125 562.25 578.125 C552.5 583.75 552.5 583.75 549.24951172 585.62524414 C547.08442929 586.87435518 544.91939018 588.12354129 542.75439453 589.37280273 C537.31384294 592.51202309 531.87252784 595.64990563 526.4296875 598.78515625 C515.97793801 604.80747329 505.53700452 610.84669337 495.125 616.9375 C485.85500223 622.35921178 476.54168248 627.70204915 467.21154785 633.01922607 C458.0871716 638.22045129 448.99867226 643.48027878 439.93310547 648.78344727 C429.40915375 654.93766742 418.84619863 661.02369996 408.28222656 667.10888672 C402.85340058 670.23680148 397.42680719 673.36858448 392 676.5 C389.83334417 677.75001879 387.6666775 679.00001878 385.5 680.25 C383.89125 681.178125 383.89125 681.178125 382.25 682.125 C190.49999999 792.75000001 190.49999999 792.75000001 187.24951172 794.62524414 C185.08442929 795.87435518 182.91939018 797.12354129 180.75439453 798.37280273 C175.31384294 801.51202309 169.87252784 804.64990563 164.4296875 807.78515625 C153.97793801 813.80747329 143.53700452 819.84669337 133.125 825.9375 C123.85500223 831.35921178 114.54168248 836.70204915 105.21154785 842.01922607 C97.07429939 846.65775267 88.96031404 851.33383462 80.875 856.0625 C70.40475986 862.18545254 59.91879258 868.27987839 49.3984375 874.31640625 C45.220469 876.71383961 41.06114612 879.13941671 36.9140625 881.58984375 C7.05361986 899.09134668 -24.47553869 906.69454777 -58.73999023 898.57739258 C-79.38348076 893.15334469 -96.60789907 882.54115552 -112 868 C-112.76183594 867.30261719 -113.52367187 866.60523438 -114.30859375 865.88671875 C-136.43733779 844.90851599 -146.17730713 814.83465963 -147.09261068 784.97921769 C-147.12788407 781.94068469 -147.13459302 778.90360399 -147.12863445 775.86487389 C-147.13038749 774.71084889 -147.13214053 773.55682388 -147.13394669 772.36782843 C-147.13858003 768.52022096 -147.13614809 764.67265172 -147.13371277 760.82504272 C-147.13503117 758.03074852 -147.13784362 755.23645624 -147.14057809 752.44216311 C-147.14571446 746.37660883 -147.14715236 740.31106253 -147.14612198 734.24550629 C-147.14459344 725.22532329 -147.14876679 716.20514908 -147.1539966 707.18496779 C-147.16365616 690.1349951 -147.16648032 673.08502542 -147.16705366 656.03505032 C-147.16751361 642.86570874 -147.16957405 629.69636833 -147.17275429 616.52702713 C-147.17365186 612.73309887 -147.17454168 608.9391706 -147.17542917 605.14524233 C-147.17565021 604.20199905 -147.17587126 603.25875577 -147.17609901 602.28692937 C-147.18225127 575.76330466 -147.18619977 549.23968037 -147.18575573 522.71605492 C-147.18574015 521.71651302 -147.18572457 520.71697112 -147.18570852 519.68714007 C-147.18562542 514.6213117 -147.18552638 509.55548332 -147.18542381 504.48965494 C-147.18540387 503.48360502 -147.18538392 502.47755509 -147.18536337 501.4410188 C-147.18532294 499.40654154 -147.18528114 497.37206428 -147.18523798 495.33758702 C-147.18462532 463.68908336 -147.19213096 432.04059043 -147.20581055 400.39208984 C-147.2211816 364.81582894 -147.22977616 329.23957508 -147.22884732 293.66331065 C-147.2287727 289.86749625 -147.22872399 286.07168186 -147.22869301 282.27586746 C-147.22868135 281.34127698 -147.2286697 280.40668649 -147.22865769 279.44377509 C-147.22862696 264.42492401 -147.23500398 249.40608226 -147.24362527 234.38723395 C-147.2521151 219.28473051 -147.25308129 204.18224067 -147.24651595 189.07973616 C-147.24282923 180.11652531 -147.24462637 171.15335587 -147.25445829 162.19014944 C-147.26048013 156.19173427 -147.25913846 150.19334894 -147.25198779 144.19493512 C-147.2481248 140.7846859 -147.24839979 137.37458119 -147.25544515 133.96432762 C-147.33391581 93.26972227 -141.3133606 59.61854598 -111.8125 29.4375 C-97.57065339 15.26967973 -79.31367706 5.31282379 -60 0 C-58.93910156 -0.31839844 -57.87820313 -0.63679687 -56.78515625 -0.96484375 C-39.44018684 -5.35674382 -17.12002221 -5.15262804 0 0 Z " fill="#FFFFFF" transform="translate(746,3)"/>
<path d="M0 0 C1.84597778 0.00737183 1.84597778 0.00737183 3.72924805 0.01489258 C12.93952376 0.13326098 21.35711535 0.87092676 30.25 3.3125 C31.44625 3.62960937 32.6425 3.94671875 33.875 4.2734375 C49.40607345 8.91301664 63.81453609 16.96898329 76.25 27.3125 C76.99507812 27.91835938 77.74015625 28.52421875 78.5078125 29.1484375 C101.74671291 48.67618271 114.15538361 77.62238215 117.25 107.3125 C117.74887899 115.15503134 117.65244874 123.01560007 117.6242218 130.87005615 C117.62696789 133.19802826 117.63102464 135.52599912 117.63626546 137.85396695 C117.64678044 144.20121562 117.63877024 150.54832199 117.62751496 156.89556432 C117.61805982 163.05334854 117.62575818 169.21112497 117.63149153 175.36890991 C117.64337419 188.72754677 117.63836589 202.0861362 117.62621326 215.44477041 C117.61565325 227.13303728 117.61114081 238.82128803 117.61250877 250.50955963 C117.61263482 251.6751051 117.61263482 251.6751051 117.61276341 252.86419694 C117.61311569 256.01882469 117.61349971 259.17345242 117.61392899 262.32808016 C117.61788841 291.88189465 117.60520199 321.43568067 117.58440243 350.98948703 C117.56602758 377.22135139 117.56022254 403.45318848 117.56567383 429.68505859 C117.56602026 431.37011487 117.56636636 433.05517115 117.56671212 434.74022743 C117.56696861 435.98984524 117.56696861 435.98984524 117.56723029 437.26470785 C117.56808389 441.45870736 117.56890767 445.65270687 117.56969929 449.84670639 C117.56985637 450.6742005 117.57001345 451.50169461 117.57017529 452.3542643 C117.57416845 474.30562933 117.56868574 496.25699175 117.560188 518.20835519 C117.559281 520.57123412 117.55837535 522.93411306 117.55747276 525.296992 C117.55687166 526.86430881 117.55626304 528.43162562 117.55564686 529.99894243 C117.55143223 540.90709718 117.55084439 551.81524677 117.55275235 562.72340207 C117.55519896 576.78038728 117.55109375 590.83734487 117.53554235 604.89432254 C117.52821957 611.6688165 117.5242118 618.44327004 117.52878571 625.21776772 C117.53287407 631.4241431 117.52766267 637.63043997 117.51515963 643.83680347 C117.51224163 646.07672803 117.51265005 648.31666004 117.51680271 650.55658266 C117.57763329 686.65775071 109.04824897 718.48842896 83.0625 744.9375 C59.46040711 768.24559572 29.65480524 778.77542973 -3.23803711 778.60571289 C-31.45612157 778.21773975 -54.24736084 766.25883374 -77.9375 752.16015625 C-83.65716261 748.76258926 -89.42266081 745.44514483 -95.1875 742.125 C-96.84736938 741.16859619 -96.84736938 741.16859619 -98.54077148 740.19287109 C-100.8120547 738.88439492 -103.0834587 737.57612839 -105.35498047 736.26806641 C-110.8216998 733.11917946 -116.28574887 729.96566736 -121.75 726.8125 C-123.91665311 725.5624765 -126.08331979 724.31247653 -128.25 723.0625 C-132.58333333 720.5625 -136.91666667 718.0625 -141.25 715.5625 C-142.32266113 714.94366943 -143.39532227 714.32483887 -144.50048828 713.68725586 C-146.66557071 712.43814482 -148.83060982 711.18895871 -150.99560547 709.93969727 C-156.43615706 706.80047691 -161.87747216 703.66259437 -167.3203125 700.52734375 C-177.77206199 694.50502671 -188.21299548 688.46580663 -198.625 682.375 C-207.30262241 677.29974877 -216.01605568 672.28991233 -224.75 667.3125 C-234.47115617 661.7724827 -244.15894658 656.17875191 -253.81689453 650.52905273 C-264.34084625 644.37483258 -274.90380137 638.28880004 -285.46777344 632.20361328 C-290.89659942 629.07569852 -296.32319281 625.94391552 -301.75 622.8125 C-303.91665583 621.56248121 -306.0833225 620.31248122 -308.25 619.0625 C-364.58333333 586.5625 -420.91666667 554.0625 -477.25 521.5625 C-478.32314453 520.94342773 -479.39628906 520.32435547 -480.50195312 519.68652344 C-482.66228293 518.44007939 -484.82244003 517.19333598 -486.98242188 515.94628906 C-492.49464393 512.76436969 -498.01003792 509.58817286 -503.53125 506.421875 C-508.97175157 503.30015326 -514.40340647 500.16366247 -519.82617188 497.01123047 C-521.68487686 495.93133157 -523.54535926 494.85448176 -525.40820312 493.78173828 C-553.25683548 477.69373017 -575.32065191 454.2492885 -584.0300293 422.64746094 C-592.34451214 390.7480043 -588.72719147 358.2522269 -572.66015625 329.4375 C-559.57623772 308.03231631 -542.07490151 294.58369671 -520.75 282.3125 C-518.69767461 281.12281331 -516.6455991 279.93269545 -514.59375 278.7421875 C-509.10154001 275.56149537 -503.60034766 272.39665467 -498.09667969 269.23583984 C-492.64361377 266.10195793 -487.19708772 262.95675723 -481.75 259.8125 C-479.58336586 258.56244361 -477.41669917 257.31244366 -475.25 256.0625 C-473.64125 255.134375 -473.64125 255.134375 -472 254.1875 C-358.25 188.5625 -358.25 188.5625 -354.99951172 186.68725586 C-352.83442929 185.43814482 -350.66939018 184.18895871 -348.50439453 182.93969727 C-343.06384294 179.80047691 -337.62252784 176.66259437 -332.1796875 173.52734375 C-321.72793801 167.50502671 -311.28700452 161.46580663 -300.875 155.375 C-291.60500223 149.95328822 -282.29168248 144.61045085 -272.96154785 139.29327393 C-263.8371716 134.09204871 -254.74867226 128.83222122 -245.68310547 123.52905273 C-235.15915375 117.37483258 -224.59619863 111.28880004 -214.03222656 105.20361328 C-208.60340058 102.07569852 -203.17680719 98.94391552 -197.75 95.8125 C-195.58334417 94.56248121 -193.4166775 93.31248122 -191.25 92.0625 C-190.1775 91.44375 -189.105 90.825 -188 90.1875 C-158.75 73.3125 -129.5 56.4375 -100.25 39.5625 C-98.63967896 38.63328735 -98.63967896 38.63328735 -96.99682617 37.68530273 C-94.84116189 36.4418934 -92.6850779 35.1992114 -90.52856445 33.95727539 C-85.52543831 31.0748299 -80.52633324 28.18616008 -75.54293823 25.26974487 C-73.80118148 24.25089782 -72.05803075 23.2344773 -70.31445312 22.21875 C-68.14500814 20.95397236 -65.97811193 19.68480703 -63.81445312 18.41015625 C-54.20290623 12.81843537 -44.34015876 7.83334791 -33.6875 4.5625 C-32.45902344 4.17578125 -31.23054688 3.7890625 -29.96484375 3.390625 C-20.04623695 0.68499669 -10.24818737 -0.04860967 0 0 Z " fill="#FFFFFF" transform="translate(1382.75,658.6875)"/>
<path d="M0 0 C2.81708331 1.6283674 5.63703821 3.25174234 8.45678711 4.87548828 C13.82927369 7.97051652 19.19871292 11.07078615 24.56713867 14.17285156 C29.97161856 17.29498433 35.37838623 20.41315032 40.78491211 23.53173828 C42.95158961 24.7817195 45.11825628 26.03171949 47.28491211 27.28173828 C48.35741211 27.90048828 49.42991211 28.51923828 50.53491211 29.15673828 C81.40991211 46.96923828 81.40991211 46.96923828 112.28491211 64.78173828 C113.35757324 65.40056885 114.43023438 66.01939941 115.53540039 66.65698242 C117.70048282 67.90609346 119.86552193 69.15527957 122.03051758 70.40454102 C127.47106917 73.54376138 132.91238427 76.68164391 138.35522461 79.81689453 C148.8069741 85.83921157 159.24790759 91.87843165 169.65991211 97.96923828 C178.33753452 103.04448951 187.05096779 108.05432595 195.78491211 113.03173828 C205.50606828 118.57175558 215.19385869 124.16548637 224.85180664 129.81518555 C235.37575836 135.9694057 245.93871348 142.05543824 256.50268555 148.140625 C261.93151153 151.26853976 267.35810492 154.40032276 272.78491211 157.53173828 C274.95156794 158.78175707 277.11823461 160.03175707 279.28491211 161.28173828 C311.78491211 180.03173828 311.78491211 180.03173828 344.28491211 198.78173828 C345.35813721 199.40089111 346.4313623 200.02004395 347.53710938 200.65795898 C349.69650606 201.90379598 351.8558488 203.14972646 354.01513672 204.39575195 C360.67344177 208.2377583 367.3339068 212.07599059 373.99560547 215.91210938 C377.27357436 217.80167495 380.54903806 219.69551687 383.82397461 221.59033203 C387.47627516 223.70332435 391.13612861 225.80124116 394.80834961 227.87939453 C403.11098795 232.60947979 410.68459206 237.56332374 417.78491211 244.03173828 C418.56092773 244.72654297 419.33694336 245.42134766 420.13647461 246.13720703 C439.75710045 264.64532316 449.22273576 290.92583841 450.03491211 317.46923828 C449.75513858 341.65410556 441.71860036 364.78929112 425.78491211 383.03173828 C425.25639648 383.70333984 424.72788086 384.37494141 424.18334961 385.06689453 C413.9351822 397.76351573 398.97570404 405.26114047 385.0480957 413.17431641 C380.73611582 415.62871884 376.44178736 418.1131342 372.14697266 420.59741211 C368.88490763 422.48369709 365.6204591 424.36578949 362.35522461 426.24658203 C355.83004968 430.00529209 349.30727761 433.76815578 342.78491211 437.53173828 C340.61825628 438.78175707 338.45158961 440.03175707 336.28491211 441.28173828 C335.21241211 441.90048828 334.13991211 442.51923828 333.03491211 443.15673828 C219.28491212 508.78173828 219.28491212 508.78173828 216.03442383 510.65698242 C213.8693414 511.90609346 211.70430229 513.15527957 209.53930664 514.40454102 C204.09875505 517.54376138 198.65743995 520.68164391 193.21459961 523.81689453 C182.76285011 529.83921157 172.32191663 535.87843165 161.90991211 541.96923828 C152.63991434 547.39095006 143.32659459 552.73378743 133.99645996 558.05096436 C124.87208371 563.25218957 115.78358437 568.51201706 106.71801758 573.81518555 C96.19406586 579.9694057 85.63111073 586.05543824 75.06713867 592.140625 C69.63831269 595.26853976 64.2117193 598.40032276 58.78491211 601.53173828 C56.61825628 602.78175707 54.45158961 604.03175707 52.28491211 605.28173828 C50.67616211 606.20986328 50.67616211 606.20986328 49.03491211 607.15673828 C37.11824544 614.03173828 25.20157878 620.90673828 13.28491211 627.78173828 C12.21120361 628.40129395 11.13749512 629.02084961 10.03125 629.65917969 C7.87717001 630.90170007 5.72271376 632.1435684 3.56787109 633.38476562 C-1.4530931 636.27789332 -6.47035216 639.17684371 -11.47372437 642.10028076 C-13.23096171 643.12660173 -14.98943576 644.150771 -16.74829102 645.17431641 C-18.94347074 646.45263392 -21.13636139 647.7348944 -23.32641602 649.02197266 C-32.51185597 654.36097276 -41.71190193 658.91546303 -51.96508789 661.78173828 C-52.66762695 661.98927734 -53.37016602 662.19681641 -54.09399414 662.41064453 C-78.44850776 669.41426162 -105.63184232 665.11859004 -127.68383789 653.14892578 C-151.65511101 638.86697567 -169.12099684 617.89900293 -176.13502526 590.65764195 C-177.18309489 586.38993905 -177.8654692 582.16496346 -178.33593369 577.79852962 C-178.46106336 576.64187822 -178.46106336 576.64187822 -178.5887209 575.46186012 C-179.52556024 565.98847678 -179.49251451 556.52331684 -179.46905518 547.01307678 C-179.47136485 544.94868165 -179.47454475 542.88428735 -179.47850966 540.81989473 C-179.48679678 535.19643504 -179.48276028 529.57304394 -179.47653723 523.94958413 C-179.47198862 517.8656311 -179.47900841 511.78168938 -179.48449707 505.69773865 C-179.4928557 494.48471236 -179.49216073 483.27170781 -179.48667413 472.058682 C-179.4816293 461.69671115 -179.48033599 451.33474823 -179.48271942 440.97277641 C-179.48287219 440.28359771 -179.48302496 439.594419 -179.48318236 438.88435609 C-179.48380511 436.08625967 -179.48444192 433.28816324 -179.48510189 430.49006683 C-179.49121066 404.27754858 -179.48568775 378.06504409 -179.47490809 351.85252796 C-179.46541898 328.60146635 -179.46626633 305.35042665 -179.47583008 282.09936523 C-179.48655669 255.93418382 -179.49077626 229.76901454 -179.48460555 203.60383123 C-179.48396419 200.81072613 -179.4833385 198.01762102 -179.48271942 195.22451591 C-179.48256127 194.53685872 -179.48240311 193.84920152 -179.48224016 193.14070623 C-179.47997227 182.78993283 -179.4826126 172.43916825 -179.48767853 162.08839607 C-179.49341486 150.30963365 -179.49173851 138.53089212 -179.48111704 126.75213129 C-179.47588096 120.74877255 -179.4737682 114.74545812 -179.48041534 108.74209976 C-179.48641992 103.23555107 -179.48302608 97.72908737 -179.47246024 92.22254627 C-179.47024517 90.24160275 -179.47131931 88.26065188 -179.47621182 86.27971316 C-179.4980109 76.71168522 -179.30392395 67.24651053 -178.33202744 57.72185421 C-178.25558487 56.96540549 -178.1791423 56.20895678 -178.1003833 55.42958537 C-176.02846617 37.25957521 -167.58173183 20.16449803 -156.21508789 6.03173828 C-155.4397168 5.01080078 -155.4397168 5.01080078 -154.64868164 3.96923828 C-138.34219083 -16.30148714 -112.52087111 -26.90267826 -87.30834961 -29.76171875 C-54.04598464 -33.04372957 -27.51405438 -15.91502837 0 0 Z " fill="#FFFFFF" transform="translate(824.215087890625,1220.96826171875)"/>
<path d="M0 0 C23.01895683 -0.91124958 45.81910182 7.94698003 62.89453125 23.16015625 C63.6421875 23.81371094 64.38984375 24.46726562 65.16015625 25.140625 C82.29534188 41.10750252 90.4476815 63.12187824 91.89453125 86.16015625 C92.03735404 91.8804101 92.03413325 97.59837452 92.02824402 103.32011414 C92.03011471 105.05062132 92.03241644 106.78112807 92.03510934 108.51163417 C92.04120183 113.24455736 92.04109676 117.97746281 92.03991497 122.71038902 C92.03971031 127.82370834 92.04523587 132.93702206 92.04997253 138.05033875 C92.05826562 148.05992469 92.06102677 158.06950474 92.06158491 168.07909384 C92.0620607 176.21847422 92.06411861 184.35785267 92.06728554 192.49723244 C92.07608841 215.59295511 92.08070548 238.68867314 92.07995506 261.78439751 C92.07989513 263.6505702 92.07989513 263.6505702 92.07983398 265.55444336 C92.07977266 267.42290444 92.07977266 267.42290444 92.0797101 269.32911221 C92.07930373 289.51257398 92.08887217 309.69601709 92.10297235 329.87947347 C92.11734862 350.62240793 92.12424185 371.36533329 92.12337857 392.10827285 C92.12304704 403.74632513 92.12577505 415.38435784 92.13655663 427.02240562 C92.14567807 436.931643 92.14782337 446.84085193 92.1410472 456.75009169 C92.13779032 461.80115984 92.13769517 466.85217348 92.14640045 471.90323639 C92.15430323 476.53651014 92.15279573 481.1696865 92.14411632 485.80295799 C92.14258961 487.46979425 92.14436582 489.13663793 92.1499764 490.80346545 C92.23671671 518.42522473 87.07276698 544.2165488 67.3359375 564.71972656 C50.93283475 581.1117161 29.72777343 591.17950117 6.34643555 591.54125977 C-19.27535722 591.48938119 -37.9787638 582.71632876 -59.62597656 569.64111328 C-64.56350306 566.69201563 -69.55769168 563.84000996 -74.54296875 560.97265625 C-76.79170098 559.6771429 -79.04039851 558.3815693 -81.2890625 557.0859375 C-82.98264893 556.11068115 -82.98264893 556.11068115 -84.71044922 555.11572266 C-90.17716855 551.96683571 -95.64121762 548.81332361 -101.10546875 545.66015625 C-103.27212186 544.41013275 -105.43878854 543.16013278 -107.60546875 541.91015625 C-137.93880208 524.41015625 -168.27213542 506.91015625 -198.60546875 489.41015625 C-199.67812988 488.79132568 -200.75079102 488.17249512 -201.85595703 487.53491211 C-204.02103946 486.28580107 -206.18607857 485.03661496 -208.35107422 483.78735352 C-213.79162581 480.64813316 -219.23294091 477.51025062 -224.67578125 474.375 C-235.12753074 468.35268296 -245.56846423 462.31346288 -255.98046875 456.22265625 C-264.65809116 451.14740502 -273.37152443 446.13756858 -282.10546875 441.16015625 C-291.82662492 435.62013895 -301.51441533 430.02640816 -311.17236328 424.37670898 C-321.696315 418.22248883 -332.25927012 412.13645629 -342.82324219 406.05126953 C-346.08721202 404.17067519 -349.35041064 402.28875079 -352.61328125 400.40625 C-353.68578125 399.7875 -354.75828125 399.16875 -355.86328125 398.53125 C-358.01718793 397.28821229 -360.17083569 396.04472583 -362.32421875 394.80078125 C-367.32342814 391.91382861 -372.32508574 389.03150334 -377.33831787 386.16897583 C-379.08959169 385.16866888 -380.83985848 384.16662174 -382.58984375 383.1640625 C-384.76756881 381.91713928 -386.94710747 380.67337519 -389.12890625 379.43359375 C-400.3380596 373.00566432 -410.85772164 366.24622946 -420.10546875 357.16015625 C-420.7190625 356.55945312 -421.33265625 355.95875 -421.96484375 355.33984375 C-437.51087914 338.8667512 -444.79161374 315.55578062 -444.2890625 293.20703125 C-443.01901998 272.1297299 -436.32289755 253.04132672 -422.10546875 237.16015625 C-421.3165625 236.26554687 -420.52765625 235.3709375 -419.71484375 234.44921875 C-412.43187756 226.66473094 -404.29376823 221.46295426 -395.10546875 216.16015625 C-394.16751465 215.61375488 -393.22956055 215.06735352 -392.26318359 214.50439453 C-385.69711029 210.67987479 -379.11058695 206.89186955 -372.51660156 203.11572266 C-367.03939493 199.97569796 -361.57283672 196.81726973 -356.10546875 193.66015625 C-353.93885632 192.41006225 -351.77218957 191.16006238 -349.60546875 189.91015625 C-347.99671875 188.98203125 -347.99671875 188.98203125 -346.35546875 188.03515625 C-180.60546875 92.41015625 -180.60546875 92.41015625 -177.35498047 90.53491211 C-175.18989804 89.28580107 -173.02485893 88.03661496 -170.85986328 86.78735352 C-165.41931169 83.64813316 -159.97799659 80.51025062 -154.53515625 77.375 C-144.08340676 71.35268296 -133.64247327 65.31346288 -123.23046875 59.22265625 C-113.96152499 53.80156093 -104.64977603 48.45836752 -95.32003784 43.14294434 C-87.11578009 38.46780919 -78.94120957 33.74494915 -70.79296875 28.97265625 C-62.82973372 24.31992749 -54.85991145 19.6792025 -46.85546875 15.09765625 C-45.95143311 14.57341064 -45.04739746 14.04916504 -44.1159668 13.5090332 C-30.10645978 5.53474801 -16.03531061 1.21975461 0 0 Z " fill="#FFFFFF" transform="translate(468.10546875,1223.83984375)"/>
<path d="M0 0 C5.33703246 3.17463499 10.72212641 6.26500041 16.10595703 9.359375 C18.29095449 10.61831322 20.47584992 11.87742854 22.66064453 13.13671875 C23.74571289 13.76175293 24.83078125 14.38678711 25.94873047 15.03076172 C31.37755645 18.15867648 36.80414984 21.29045948 42.23095703 24.421875 C44.39761286 25.67189379 46.56427953 26.92189378 48.73095703 28.171875 C87.73095703 50.671875 126.73095703 73.171875 165.73095703 95.671875 C166.80410156 96.29094727 167.87724609 96.91001953 168.98291016 97.54785156 C171.14323996 98.79429561 173.30339706 100.04103902 175.46337891 101.28808594 C180.97560096 104.47000531 186.49099495 107.64620214 192.01220703 110.8125 C197.45171635 113.93342682 202.88127333 117.07097298 208.30273438 120.22314453 C210.16726368 121.3048016 212.03449893 122.38181728 213.90527344 123.45263672 C234.86288167 135.46756847 251.21216501 150.82495659 258.08862305 174.84350586 C263.9764828 197.07510846 261.82309736 220.08503796 250.37939453 240.171875 C237.49096434 260.30041937 219.01235973 270.42810512 198.73890686 281.81851196 C192.45946669 285.34827203 186.21751456 288.94193935 179.98095703 292.546875 C178.91055176 293.1646582 177.84014648 293.78244141 176.73730469 294.41894531 C169.59703095 298.54337722 162.47384392 302.69646104 155.35595703 306.859375 C146.08590188 312.28098995 136.77264053 317.62392357 127.44250488 322.94110107 C118.31812863 328.14232629 109.22962929 333.40215378 100.1640625 338.70532227 C89.64011078 344.85954242 79.07715566 350.94557496 68.51318359 357.03076172 C63.08435761 360.15867648 57.65776422 363.29045948 52.23095703 366.421875 C50.0643012 367.67189379 47.89763453 368.92189378 45.73095703 370.171875 C44.65845703 370.790625 43.58595703 371.409375 42.48095703 372.046875 C39.23095703 373.921875 35.98095703 375.796875 32.73095703 377.671875 C31.12087769 378.60084595 31.12087769 378.60084595 29.47827148 379.54858398 C27.32074102 380.79320704 25.16302739 382.03751264 23.00512695 383.28149414 C17.44710489 386.48612326 11.89271646 389.69684493 6.34423828 392.91796875 C-0.01477175 396.60718271 -6.38571828 400.27490015 -12.76904297 403.921875 C-13.5544043 404.37240234 -14.33976562 404.82292969 -15.14892578 405.28710938 C-35.56933648 416.92646233 -57.41425753 420.80769083 -80.39404297 415.359375 C-93.50481324 411.45702582 -104.70847155 405.20728764 -114.76904297 395.921875 C-115.47287109 395.30957031 -116.17669922 394.69726562 -116.90185547 394.06640625 C-129.82611479 382.18115601 -138.81857474 363.54478527 -139.95593333 346.04657531 C-140.03112091 342.8294951 -140.04527972 339.61782419 -140.03646851 336.39987183 C-140.04099962 335.17346737 -140.04553073 333.94706291 -140.05019915 332.68349469 C-140.06061644 329.30503319 -140.06217812 325.92678578 -140.0598104 322.54832363 C-140.05940021 318.89442889 -140.07046063 315.24056522 -140.07992554 311.58668518 C-140.09649359 304.43716849 -140.1020332 297.28768479 -140.10315029 290.1381505 C-140.10410287 284.32187387 -140.10822358 278.50560807 -140.11455154 272.68933487 C-140.13215335 256.17286542 -140.1413922 239.65642189 -140.1398906 223.13994299 C-140.13981068 222.25071493 -140.13973077 221.36148687 -140.13964844 220.4453125 C-140.13956668 219.55498944 -140.13948491 218.66466637 -140.13940068 217.74736382 C-140.13858832 203.32870988 -140.15771604 188.91016054 -140.18592517 174.49153684 C-140.21470979 159.66085282 -140.22846237 144.83021971 -140.22673762 129.99950707 C-140.22607559 121.6835851 -140.23148539 113.36777276 -140.25309372 105.05187607 C-140.27137922 97.96975474 -140.27559286 90.88779272 -140.26207487 83.80565791 C-140.25558181 80.19852006 -140.25529357 76.59168719 -140.27278137 72.98457909 C-140.426484 39.18082871 -140.426484 39.18082871 -132.01904297 23.546875 C-131.67542725 22.88679443 -131.33181152 22.22671387 -130.9777832 21.54663086 C-127.87919213 15.77778959 -124.1990727 10.75001447 -119.76904297 5.921875 C-119.10517578 5.16648437 -118.44130859 4.41109375 -117.75732422 3.6328125 C-83.8217734 -32.8745638 -37.64607922 -22.53611678 0 0 Z " fill="#FFFFFF" transform="translate(139.76904296875,866.078125)"/>
<path d="M0 0 C13.82524427 11.05671299 23.01962984 24.29812061 26 42 C26.26673526 45.46847497 26.27902555 48.91883595 26.26742554 52.39639282 C26.27195665 53.40622014 26.27648776 54.41604747 26.28115618 55.45647562 C26.29375804 58.82080316 26.29218251 62.18496795 26.29052734 65.54931641 C26.29651529 67.96962694 26.30332145 70.38993557 26.31088257 72.8102417 C26.32669375 78.69155064 26.33298989 84.57282179 26.33410732 90.45414765 C26.33506034 95.23975588 26.33918327 100.02535098 26.34550858 104.81095505 C26.36310884 118.40551048 26.37234957 132.00003444 26.37084763 145.59460135 C26.37076772 146.32634677 26.3706878 147.05809219 26.37060547 147.81201172 C26.37052371 148.54466001 26.37044195 149.27730831 26.37035771 150.03215806 C26.36954556 161.89404964 26.38866831 173.75581401 26.4168822 185.61766882 C26.44568254 197.82329915 26.45941852 210.02886758 26.45769465 222.23453271 C26.45703312 229.07659238 26.46242045 235.91851876 26.48405075 242.76054764 C26.50428102 249.20058447 26.5035161 255.64041335 26.48901749 262.08046722 C26.48693567 264.43496233 26.49159255 266.78947527 26.5037384 269.14393997 C26.60865425 290.90310437 24.08018683 308.94285126 8.12109375 325.1328125 C-0.11774663 332.9951255 -9.9569863 338.23513219 -21 341 C-21.7528125 341.18949219 -22.505625 341.37898438 -23.28125 341.57421875 C-48.38741264 345.50607468 -67.46039998 334.18300128 -88.1875 321.84765625 C-93.90716261 318.45008926 -99.67266081 315.13264483 -105.4375 311.8125 C-106.54407959 311.17489746 -107.65065918 310.53729492 -108.79077148 309.88037109 C-111.0620547 308.57189492 -113.3334587 307.26362839 -115.60498047 305.95556641 C-121.0716998 302.80667946 -126.53574887 299.65316736 -132 296.5 C-134.16665311 295.2499765 -136.33331979 293.99997653 -138.5 292.75 C-151.5 285.25 -164.5 277.75 -177.5 270.25 C-178.57266113 269.63116943 -179.64532227 269.01233887 -180.75048828 268.37475586 C-182.91557071 267.12564482 -185.08060982 265.87645871 -187.24560547 264.62719727 C-192.68615706 261.48797691 -198.12747216 258.35009437 -203.5703125 255.21484375 C-215.08813337 248.57851563 -226.60042486 241.93320217 -238.0690918 235.2121582 C-243.20093909 232.20577193 -248.34649821 229.22801751 -253.51953125 226.29296875 C-254.59380371 225.67881104 -255.66807617 225.06465332 -256.77490234 224.43188477 C-258.81068039 223.26878508 -260.85104803 222.11366331 -262.89697266 220.96850586 C-278.66087425 211.92290542 -288.70542393 199.39646422 -294 182 C-297.89625816 164.8272113 -295.32055731 146.67735687 -285.9609375 131.80859375 C-279.14075619 122.04024642 -271.17687668 115.92821599 -261 110 C-260.09040527 109.46777832 -259.18081055 108.93555664 -258.24365234 108.38720703 C-252.24022439 104.88399133 -246.21661657 101.4168573 -240.182724 97.96641541 C-234.11199636 94.49459039 -228.0559009 90.99759923 -222 87.5 C-219.83339842 86.24988718 -217.66673164 84.99988737 -215.5 83.75 C-214.4275 83.13125 -213.355 82.5125 -212.25 81.875 C-176.5 61.25 -176.5 61.25 -173.24951172 59.37475586 C-171.08442929 58.12564482 -168.91939018 56.87645871 -166.75439453 55.62719727 C-161.31384294 52.48797691 -155.87252784 49.35009437 -150.4296875 46.21484375 C-139.97793844 40.19252696 -129.53696861 34.15336763 -119.125 28.0625 C-109.10971416 22.20418776 -99.04887358 16.42845857 -88.95654297 10.70410156 C-83.18141519 7.42372754 -77.46188639 4.08082492 -71.81713867 0.58056641 C-49.6749314 -13.00235843 -22.22840093 -15.38154391 0 0 Z " fill="#FFFFFF" transform="translate(467,564)"/>
</svg>
